<?xml version="1.0" standalone="no"?><!DOCTYPE svg PUBLIC "-//W3C//DTD SVG 1.1//EN" "http://www.w3.org/Graphics/SVG/1.1/DTD/svg11.dtd"><svg t="1784339294123" class="icon" viewBox="0 0 1024 1024" version="1.1" xmlns="http://www.w3.org/2000/svg" p-id="17181" xmlns:xlink="http://www.w3.org/1999/xlink" width="512" height="512"><path d="M177.75183645 91.09868089c-0.10194489-8.63618845 5.70891378-17.35975822 14.17033955-19.73361778 8.92745955-3.20398222 19.50060089 1.95151645 23.43276089 10.38381511 2.78163911 5.12637155 1.45635555 11.12655645 1.87869866 16.67527111 1.60199111 32.06894933 10.48576 65.02627555 31.38446223 90.07559112 16.98110578 21.02977422 41.14204445 35.28749511 66.59913955 43.66153955-1.35441067-8.388608-5.49046045-16.00534755-7.602176-24.20462933-6.27689245-22.90847289-10.29643378-46.54512355-10.67508622-70.32740978-0.786432-9.94690845 6.80118045-20.17052445 16.98110578-21.07346489 10.58770489-2.12627911 20.94239289 6.39340089 22.29680356 16.79177955 0.61166933 24.00073955 4.54382933 47.972352 11.91298844 70.83713423 5.59240533 15.37911467 12.61203911 30.77279289 24.24832 42.56927289 9.13134933 8.89833245 20.72393955 14.53442845 31.719424 20.72393955 29.25818311 15.990784 57.65711645 34.74864355 79.88110222 59.91446756 20.34528711 23.01041778 35.95741867 50.14232178 45.88976356 79.18205155 0.75730489 1.77675378 1.19421155 3.83021511 2.66513066 5.21375289 23.38907022-2.00977067 47.37524622-0.01456355 69.77399467 7.22352356 14.286848 5.22831645 27.87464533 12.87418311 38.797312 23.56383289 8.781824 7.90801067 14.86939022 18.14619022 22.34049422 27.20472178 17.54908445 22.020096 40.06434133 39.70025245 64.53111467 53.46281244 8.43229867 5.41764267 17.88404622 9.01484089 26.24352711 14.53442844 10.31099733 6.97594311 14.97133511 20.33072355 12.75767467 32.38934756-1.61655467 13.500416-10.54401422 24.94737067-20.97152 33.08839822-13.03438222 10.10710755-29.94267022 13.67517867-46.15190756 13.31108978-18.087936 0.08738133-35.782656-4.74771911-53.88515556-4.41275734-20.47635911 0.75730489-42.58383645 2.33016889-59.69601422 14.86939023-16.67527111 13.12176355-27.01539555 32.62236445-33.70006755 52.41423644-4.77684622 15.55387733-7.54392178 31.82136889-7.48566756 48.103424 1.76219022 50.82680889 32.636928 98.34769067 76.152832 123.79022223 5.70891378 3.42243555 11.62171733 6.50990933 17.62190223 9.40805688 50.79768178-23.43276089 94.45922133-61.60384 125.45046755-108.10527288 36.62734222-53.49193955 54.77353245-118.882304 52.90939733-183.54449067-2.02433422-58.21053155-19.45691022-116.24630045-52.07927466-164.69924978-9.36436622-14.53442845-20.38897778-27.93289955-31.981568-40.74882845-16.99566933-17.76753778-36.40888889-33.05927111-56.69592178-46.86552177 22.29680355-9.02940445 44.72467911-17.69472 66.96322844-26.86976 10.79159467 9.36436622 22.23854933 18.087936 31.850496 28.71933155 66.977792 68.75454578 104.464384 164.61186845 104.31874845 260.36724622-0.30583467 42.40907378-7.45654045 84.78902045-21.233664 124.89705245-31.13688178 90.01733689-99.07586845 166.723584-184.86977423 208.17146311-107.39165867 53.18610489-240.44430222 49.89474133-345.22908444-8.19928178-13.25283555-7.29634133-26.11245511-15.32086045-38.52060444-23.986176-2.46124089-1.93695289-6.33514667-3.18941867-6.58272712-6.80118044-3.50981689-28.00571733-2.67969422-56.39008711 0.131072-84.410368 6.946816-60.99217067 23.65121422-121.110528 51.249152-176.029696 25.60273067-51.74431289 60.36593778-98.85741511 102.0759609-138.74699378-24.69979022-6.04387555-49.16656355-16.39856355-67.3418809-34.69038933-17.24324978-18.18988089-27.81639111-42.00129422-32.85538133-66.35155911-0.48059733-3.56807111-1.80588089-10.45663289 3.74283378-10.20905245 45.42372978-0.786432 92.02710755 11.84017067 128.02821689 40.26823111 7.70412089 6.26232889 15.00046222 13.00525511 21.99096889 20.06857956-5.49046045-25.25320533-19.50060089-47.76846222-35.782656-67.48751644-26.49110755-30.26306845-62.2592-50.69573689-99.30888533-65.28841956-27.918336-11.49064533-57.278464-19.47147378-83.9880249-33.77288534-27.52512-13.54410667-51.380224-34.83602489-67.09430044-61.26887822-18.37920711-31.326208-26.30178133-67.95355022-26.25809066-104.05660444z" p-id="17182" fill="#f1cadd"></path><path d="M804.47988622 79.18569245c6.07300267-10.51488711 22.69001955-11.12655645 30.37957689-2.16996978 3.670016 3.65545245 5.53415111 8.912896 5.44676978 14.05383111-0.33496178 29.95723378-5.41764267 60.26399289-18.13162667 87.57065955-12.94700089 28.58825955-34.38455467 53.40455822-61.42907733 69.49728712-21.14628267 13.41303467-44.81206045 21.84533333-68.04093156 30.81648355-29.79703467 11.403264-58.35616711 27.43773867-80.95880533 50.25883022-15.02958933 15.13153422-25.22407822 34.16610133-34.38455467 53.20066845-7.82062933 1.82044445-16.47138133-0.34952533-24.62697244 0.36408888-2.63600355-8.18471822-7.98082845-15.466496-10.38381511-23.53470577 14.66550045-35.05447822 41.34593422-63.78837333 72.01678222-85.64827023 17.86948267-12.85961955 35.98654578-26.94257778 46.23928889-46.96746666 12.16056889-24.04443022 17.59277511-50.87049955 20.76763022-77.44898844 1.10683022-8.46142578-1.12139378-18.05880889 4.70402844-25.23864178 6.32058311-9.08765867 20.709376-10.07798045 28.51544178-2.40298667 4.92248178 4.36906667 6.96137955 11.18481067 6.48078222 17.63646578-0.68448711 23.63665067-4.42732089 47.17135645-11.02461155 69.89050311-2.25735111 7.64586667-5.21375289 15.05871645-7.29634133 22.74827378 16.89372445-5.83998578 33.45248711-13.57323378 47.448064-24.85998934 17.68015645-13.45672533 31.07862755-32.20002133 38.98663822-52.89483378 6.30601955-16.42769067 10.28187022-33.75832178 11.665408-51.30740622 0.64079645-7.89344711-1.25246578-16.61701689 3.62632533-23.56383288z" p-id="17183" fill="#f1cadd"></path><path d="M392.09824711 226.67081955c38.44778667-13.39847111 79.26943289-19.23845689 119.90175289-19.57341866 39.059456 0.36408889 78.00240355 7.10701511 114.93558045 19.85012622-19.77730845 15.83058489-40.34104889 30.72910222-59.44843378 47.38980978-33.05927111-7.29634133-67.40013511-8.27209955-100.83805867-3.07291022-15.93252978-13.80625067-34.996224-23.17061689-53.22979555-33.46705067-6.97594311-3.94672355-14.46161067-6.946816-21.32104534-11.12655645zM270.21585067 293.53210311c3.45156267-4.74771911 8.73813333-1.64568178 12.93243733 0.10194489 19.48603733 8.17015467 39.55461689 14.86939022 59.02609067 23.03954489-23.88423111 15.51018667-45.80238222 34.12241067-64.63305956 55.51627378-42.56927289 48.43838578-68.87105422 110.53738667-75.19163733 174.64615822-6.67010845 63.73011911 7.00507022 129.41175467 38.43322311 185.24842666 5.46133333 9.80127289 12.39358578 18.84524089 17.28694044 28.90865778-5.43220622 28.07853511-6.30601955 56.73961245-6.59729066 85.24049067-12.67029333-10.39837867-22.9376-23.40363378-33.33597867-36.00110933-35.97198222-45.71500089-61.05042489-100.007936-72.01678222-157.155328-11.79648-57.10370133-9.68476445-116.916224 5.66522311-173.146112 19.15107555-72.26436267 60.86109867-138.58679467 118.43083378-186.39894756z" p-id="17184" fill="#f1cadd"></path></svg>